<svg width="603" height="319" viewBox="0 0 603 319" fill="none" xmlns="http://www.w3.org/2000/svg">
<rect x="1" y="1.38019" width="602" height="316.603" rx="3" fill="#3A3636"/>
<path d="M263.349 128.491L386.337 255.995M140.349 1L263.337 128.504M478.349 101.93L601.337 229.435M1.33521 113.603L94.3231 202.86M186.494 49.4741L94.4221 203.526M94.4249 203.521L27.4249 318.263M478.494 102.595L386.422 256.745M539.492 1.66745L478.421 102.598M386.422 256.648L349.422 318.269" stroke="white"/>
<path d="M178.281 182.06H171.496L145.727 142.614V182.06H138.941V130.872H145.727L171.566 170.493V130.872H178.281V182.06ZM229.645 158.118C229.645 163.134 228.801 167.517 227.113 171.267C225.426 174.993 223.035 177.841 219.941 179.81C216.848 181.779 213.238 182.763 209.113 182.763C205.082 182.763 201.508 181.779 198.391 179.81C195.273 177.818 192.848 174.993 191.113 171.337C189.402 167.657 188.523 163.404 188.477 158.575V154.884C188.477 149.962 189.332 145.614 191.043 141.841C192.754 138.068 195.168 135.185 198.285 133.193C201.426 131.177 205.012 130.169 209.043 130.169C213.145 130.169 216.754 131.165 219.871 133.157C223.012 135.126 225.426 137.997 227.113 141.771C228.801 145.521 229.645 149.892 229.645 154.884V158.118ZM222.93 154.814C222.93 148.743 221.711 144.091 219.273 140.857C216.836 137.599 213.426 135.97 209.043 135.97C204.777 135.97 201.414 137.599 198.953 140.857C196.516 144.091 195.262 148.591 195.191 154.357V158.118C195.191 164.001 196.422 168.63 198.883 172.005C201.367 175.357 204.777 177.032 209.113 177.032C213.473 177.032 216.848 175.45 219.238 172.286C221.629 169.099 222.859 164.54 222.93 158.611V154.814ZM272.711 159.243C266.922 157.579 262.703 155.54 260.055 153.126C257.43 150.689 256.117 147.689 256.117 144.126C256.117 140.095 257.723 136.767 260.934 134.142C264.168 131.493 268.363 130.169 273.52 130.169C277.035 130.169 280.164 130.849 282.906 132.208C285.672 133.568 287.805 135.443 289.305 137.833C290.828 140.224 291.59 142.837 291.59 145.673H284.805C284.805 142.579 283.82 140.154 281.852 138.396C279.883 136.614 277.105 135.724 273.52 135.724C270.191 135.724 267.59 136.462 265.715 137.939C263.863 139.392 262.938 141.419 262.938 144.021C262.938 146.107 263.816 147.876 265.574 149.329C267.355 150.759 270.367 152.072 274.609 153.267C278.875 154.462 282.203 155.786 284.594 157.239C287.008 158.669 288.789 160.345 289.938 162.267C291.109 164.189 291.695 166.45 291.695 169.052C291.695 173.2 290.078 176.529 286.844 179.036C283.609 181.521 279.285 182.763 273.871 182.763C270.355 182.763 267.074 182.095 264.027 180.759C260.98 179.4 258.625 177.548 256.961 175.204C255.32 172.861 254.5 170.2 254.5 167.224H261.285C261.285 170.318 262.422 172.767 264.695 174.572C266.992 176.353 270.051 177.243 273.871 177.243C277.434 177.243 280.164 176.517 282.062 175.064C283.961 173.611 284.91 171.63 284.91 169.122C284.91 166.614 284.031 164.681 282.273 163.322C280.516 161.939 277.328 160.579 272.711 159.243ZM307.621 182.06H300.871V130.872H307.621V182.06ZM357.789 175.345C356.055 177.829 353.629 179.693 350.512 180.935C347.418 182.154 343.809 182.763 339.684 182.763C335.512 182.763 331.809 181.79 328.574 179.845C325.34 177.876 322.832 175.087 321.051 171.478C319.293 167.868 318.391 163.685 318.344 158.927V154.462C318.344 146.751 320.137 140.775 323.723 136.532C327.332 132.29 332.395 130.169 338.91 130.169C344.254 130.169 348.555 131.54 351.812 134.282C355.07 137.001 357.062 140.868 357.789 145.884H351.039C349.773 139.111 345.742 135.724 338.945 135.724C334.422 135.724 330.988 137.318 328.645 140.505C326.324 143.669 325.152 148.263 325.129 154.286V158.47C325.129 164.212 326.441 168.782 329.066 172.181C331.691 175.556 335.242 177.243 339.719 177.243C342.25 177.243 344.465 176.962 346.363 176.4C348.262 175.837 349.832 174.888 351.074 173.552V162.056H339.227V156.572H357.789V175.345ZM408.414 182.06H401.629L375.859 142.614V182.06H369.074V130.872H375.859L401.699 170.493V130.872H408.414V182.06ZM449.301 168.7H427.855L423.039 182.06H416.078L435.625 130.872H441.531L461.113 182.06H454.188L449.301 168.7ZM429.895 163.146H447.297L438.578 139.204L429.895 163.146ZM474.789 176.54H499.047V182.06H468.004V130.872H474.789V176.54Z" fill="white"/>
<path d="M178.281 182.06V183.06H179.281V182.06H178.281ZM171.496 182.06L170.659 182.607L170.955 183.06H171.496V182.06ZM145.727 142.614L146.564 142.068L144.727 139.255V142.614H145.727ZM145.727 182.06V183.06H146.727V182.06H145.727ZM138.941 182.06H137.941V183.06H138.941V182.06ZM138.941 130.872V129.872H137.941V130.872H138.941ZM145.727 130.872L146.564 130.326L146.268 129.872H145.727V130.872ZM171.566 170.493L170.729 171.04L172.566 173.857V170.493H171.566ZM171.566 130.872V129.872H170.566V130.872H171.566ZM178.281 130.872H179.281V129.872H178.281V130.872ZM178.281 181.06H171.496V183.06H178.281V181.06ZM172.333 181.513L146.564 142.068L144.889 143.161L170.659 182.607L172.333 181.513ZM144.727 142.614V182.06H146.727V142.614H144.727ZM145.727 181.06H138.941V183.06H145.727V181.06ZM139.941 182.06V130.872H137.941V182.06H139.941ZM138.941 131.872H145.727V129.872H138.941V131.872ZM144.889 131.419L170.729 171.04L172.404 169.947L146.564 130.326L144.889 131.419ZM172.566 170.493V130.872H170.566V170.493H172.566ZM171.566 131.872H178.281V129.872H171.566V131.872ZM177.281 130.872V182.06H179.281V130.872H177.281ZM227.113 171.267L228.024 171.679L228.025 171.677L227.113 171.267ZM198.391 179.81L197.852 180.652L197.857 180.655L198.391 179.81ZM191.113 171.337L190.206 171.759L190.21 171.766L191.113 171.337ZM188.477 158.575H187.477L187.477 158.585L188.477 158.575ZM198.285 133.193L198.824 134.035L198.825 134.034L198.285 133.193ZM219.871 133.157L219.333 134L219.34 134.005L219.871 133.157ZM227.113 141.771L226.2 142.179L226.201 142.181L227.113 141.771ZM219.273 140.857L218.473 141.456L218.475 141.459L219.273 140.857ZM198.953 140.857L198.155 140.254L198.155 140.255L198.953 140.857ZM195.191 154.357L194.191 154.344V154.357H195.191ZM198.883 172.005L198.075 172.594L198.079 172.601L198.883 172.005ZM219.238 172.286L220.036 172.889L220.038 172.886L219.238 172.286ZM222.93 158.611L223.93 158.622V158.611H222.93ZM228.645 158.118C228.645 163.023 227.82 167.261 226.201 170.856L228.025 171.677C229.782 167.773 230.645 163.245 230.645 158.118H228.645ZM226.202 170.854C224.585 174.425 222.316 177.114 219.405 178.966L220.478 180.653C223.755 178.569 226.266 175.562 228.024 171.679L226.202 170.854ZM219.405 178.966C216.491 180.82 213.073 181.763 209.113 181.763V183.763C213.404 183.763 217.205 182.737 220.478 180.653L219.405 178.966ZM209.113 181.763C205.253 181.763 201.867 180.823 198.925 178.964L197.857 180.655C201.148 182.734 204.911 183.763 209.113 183.763V181.763ZM198.929 178.967C195.985 177.085 193.679 174.412 192.017 170.909L190.21 171.766C192.017 175.575 194.562 178.55 197.852 180.652L198.929 178.967ZM192.02 170.916C190.379 167.387 189.522 163.278 189.477 158.566L187.477 158.585C187.525 163.529 188.425 167.928 190.207 171.759L192.02 170.916ZM189.477 158.575V154.884H187.477V158.575H189.477ZM189.477 154.884C189.477 150.078 190.312 145.876 191.954 142.254L190.132 141.428C188.352 145.353 187.477 149.846 187.477 154.884H189.477ZM191.954 142.254C193.595 138.635 195.889 135.911 198.824 134.035L197.747 132.35C194.447 134.459 191.913 137.5 190.132 141.428L191.954 142.254ZM198.825 134.034C201.792 132.13 205.187 131.169 209.043 131.169V129.169C204.836 129.169 201.06 130.224 197.745 132.351L198.825 134.034ZM209.043 131.169C212.975 131.169 216.393 132.122 219.333 134L220.41 132.315C217.114 130.209 213.314 129.169 209.043 129.169V131.169ZM219.34 134.005C222.294 135.856 224.584 138.565 226.2 142.179L228.026 141.362C226.267 137.43 223.73 134.396 220.402 132.31L219.34 134.005ZM226.201 142.181C227.82 145.778 228.645 150.004 228.645 154.884H230.645C230.645 149.78 229.782 145.264 228.025 141.36L226.201 142.181ZM228.645 154.884V158.118H230.645V154.884H228.645ZM223.93 154.814C223.93 148.629 222.691 143.73 220.072 140.255L218.475 141.459C220.731 144.452 221.93 148.858 221.93 154.814H223.93ZM220.074 140.258C217.432 136.726 213.713 134.97 209.043 134.97V136.97C213.139 136.97 216.24 138.472 218.473 141.456L220.074 140.258ZM209.043 134.97C204.48 134.97 200.815 136.733 198.155 140.254L199.751 141.459C202.013 138.465 205.074 136.97 209.043 136.97V134.97ZM198.155 140.255C195.545 143.718 194.263 148.453 194.191 154.344L196.191 154.369C196.26 148.729 197.487 144.464 199.752 141.459L198.155 140.255ZM194.191 154.357V158.118H196.191V154.357H194.191ZM194.191 158.118C194.191 164.129 195.447 168.991 198.075 172.594L199.691 171.416C197.396 168.269 196.191 163.873 196.191 158.118H194.191ZM198.079 172.601C200.761 176.218 204.475 178.032 209.113 178.032V176.032C205.079 176.032 201.973 174.495 199.686 171.41L198.079 172.601ZM209.113 178.032C213.75 178.032 217.436 176.331 220.036 172.889L218.44 171.684C216.259 174.57 213.195 176.032 209.113 176.032V178.032ZM220.038 172.886C222.605 169.464 223.858 164.666 223.93 158.622L221.93 158.599C221.861 164.415 220.653 168.733 218.438 171.686L220.038 172.886ZM223.93 158.611V154.814H221.93V158.611H223.93ZM272.711 159.243L272.989 158.283L272.987 158.282L272.711 159.243ZM260.055 153.126L259.374 153.859L259.381 153.865L260.055 153.126ZM260.934 134.142L261.567 134.916L261.567 134.916L260.934 134.142ZM282.906 132.208L282.462 133.104L282.465 133.106L282.906 132.208ZM289.305 137.833L288.458 138.365L288.461 138.371L289.305 137.833ZM291.59 145.673V146.673H292.59V145.673H291.59ZM284.805 145.673H283.805V146.673H284.805V145.673ZM281.852 138.396L281.181 139.137L281.186 139.142L281.852 138.396ZM265.715 137.939L266.332 138.725L266.334 138.724L265.715 137.939ZM265.574 149.329L264.937 150.1L264.943 150.105L264.948 150.109L265.574 149.329ZM274.609 153.267L274.338 154.229L274.34 154.23L274.609 153.267ZM284.594 157.239L284.074 158.094L284.084 158.1L284.594 157.239ZM289.938 162.267L289.079 162.78L289.084 162.787L289.938 162.267ZM286.844 179.036L287.453 179.829L287.457 179.827L286.844 179.036ZM264.027 180.759L263.62 181.672L263.626 181.675L264.027 180.759ZM256.961 175.204L256.142 175.778L256.146 175.783L256.961 175.204ZM254.5 167.224V166.224H253.5V167.224H254.5ZM261.285 167.224H262.285V166.224H261.285V167.224ZM264.695 174.572L264.074 175.355L264.082 175.362L264.695 174.572ZM282.273 163.322L281.655 164.107L281.662 164.113L282.273 163.322ZM272.987 158.282C267.258 156.635 263.211 154.65 260.728 152.387L259.381 153.865C262.195 156.431 266.586 158.523 272.435 160.204L272.987 158.282ZM260.735 152.393C258.313 150.144 257.117 147.409 257.117 144.126H255.117C255.117 147.969 256.547 151.233 259.374 153.859L260.735 152.393ZM257.117 144.126C257.117 140.405 258.58 137.357 261.567 134.916L260.301 133.368C256.865 136.176 255.117 139.785 255.117 144.126H257.117ZM261.567 134.916C264.584 132.445 268.539 131.169 273.52 131.169V129.169C268.188 129.169 263.752 130.542 260.3 133.368L261.567 134.916ZM273.52 131.169C276.904 131.169 279.877 131.823 282.462 133.104L283.35 131.312C280.451 129.875 277.166 129.169 273.52 129.169V131.169ZM282.465 133.106C285.08 134.391 287.065 136.146 288.458 138.365L290.152 137.302C288.544 134.739 286.264 132.744 283.347 131.311L282.465 133.106ZM288.461 138.371C289.882 140.601 290.59 143.027 290.59 145.673H292.59C292.59 142.647 291.774 139.847 290.148 137.296L288.461 138.371ZM291.59 144.673H284.805V146.673H291.59V144.673ZM285.805 145.673C285.805 142.348 284.736 139.63 282.518 137.65L281.186 139.142C282.905 140.677 283.805 142.81 283.805 145.673H285.805ZM282.522 137.654C280.314 135.656 277.265 134.724 273.52 134.724V136.724C276.946 136.724 279.452 137.573 281.181 139.137L282.522 137.654ZM273.52 134.724C270.054 134.724 267.205 135.492 265.096 137.153L266.334 138.724C267.974 137.432 270.329 136.724 273.52 136.724V134.724ZM265.097 137.152C262.977 138.816 261.938 141.149 261.938 144.021H263.938C263.938 141.689 264.75 139.967 266.332 138.725L265.097 137.152ZM261.938 144.021C261.938 146.435 262.974 148.477 264.937 150.1L266.211 148.559C264.659 147.275 263.938 145.778 263.938 144.021H261.938ZM264.948 150.109C266.892 151.669 270.064 153.025 274.338 154.229L274.881 152.304C270.67 151.118 267.819 149.849 266.2 148.549L264.948 150.109ZM274.34 154.23C278.562 155.413 281.793 156.707 284.074 158.094L285.113 156.385C282.613 154.865 279.188 153.511 274.879 152.304L274.34 154.23ZM284.084 158.1C286.39 159.466 288.035 161.033 289.079 162.78L290.796 161.754C289.543 159.657 287.625 157.873 285.103 156.379L284.084 158.1ZM289.084 162.787C290.146 164.529 290.695 166.605 290.695 169.052H292.695C292.695 166.296 292.073 163.848 290.791 161.746L289.084 162.787ZM290.695 169.052C290.695 172.896 289.217 175.931 286.231 178.246L287.457 179.827C290.939 177.126 292.695 173.505 292.695 169.052H290.695ZM286.235 178.243C283.225 180.555 279.137 181.763 273.871 181.763V183.763C279.433 183.763 283.994 182.486 287.453 179.829L286.235 178.243ZM273.871 181.763C270.486 181.763 267.342 181.12 264.429 179.843L263.626 181.675C266.806 183.069 270.225 183.763 273.871 183.763V181.763ZM264.435 179.846C261.525 178.547 259.321 176.801 257.776 174.625L256.146 175.783C257.929 178.295 260.436 180.252 263.62 181.672L264.435 179.846ZM257.78 174.631C256.262 172.462 255.5 170.004 255.5 167.224H253.5C253.5 170.397 254.378 173.259 256.142 175.778L257.78 174.631ZM254.5 168.224H261.285V166.224H254.5V168.224ZM260.285 167.224C260.285 170.6 261.544 173.346 264.074 175.355L265.317 173.788C263.3 172.187 262.285 170.036 262.285 167.224H260.285ZM264.082 175.362C266.603 177.316 269.899 178.243 273.871 178.243V176.243C270.203 176.243 267.381 175.389 265.308 173.781L264.082 175.362ZM273.871 178.243C277.55 178.243 280.53 177.496 282.67 175.858L281.455 174.27C279.798 175.538 277.317 176.243 273.871 176.243V178.243ZM282.67 175.858C284.83 174.205 285.91 171.924 285.91 169.122H283.91C283.91 171.337 283.092 173.016 281.455 174.27L282.67 175.858ZM285.91 169.122C285.91 166.35 284.922 164.105 282.885 162.53L281.662 164.113C283.141 165.256 283.91 166.879 283.91 169.122H285.91ZM282.892 162.536C280.971 161.024 277.62 159.623 272.989 158.283L272.433 160.204C277.036 161.536 280.06 162.853 281.655 164.107L282.892 162.536ZM307.621 182.06V183.06H308.621V182.06H307.621ZM300.871 182.06H299.871V183.06H300.871V182.06ZM300.871 130.872V129.872H299.871V130.872H300.871ZM307.621 130.872H308.621V129.872H307.621V130.872ZM307.621 181.06H300.871V183.06H307.621V181.06ZM301.871 182.06V130.872H299.871V182.06H301.871ZM300.871 131.872H307.621V129.872H300.871V131.872ZM306.621 130.872V182.06H308.621V130.872H306.621ZM357.789 175.345L358.609 175.917L358.789 175.659V175.345H357.789ZM350.512 180.935L350.878 181.865L350.882 181.864L350.512 180.935ZM328.574 179.845L328.054 180.699L328.059 180.702L328.574 179.845ZM321.051 171.478L320.152 171.916L320.154 171.92L321.051 171.478ZM318.344 158.927H317.344L317.344 158.937L318.344 158.927ZM323.723 136.532L322.961 135.884L322.959 135.887L323.723 136.532ZM351.812 134.282L351.169 135.048L351.172 135.05L351.812 134.282ZM357.789 145.884V146.884H358.944L358.779 145.741L357.789 145.884ZM351.039 145.884L350.056 146.068L350.209 146.884H351.039V145.884ZM328.645 140.505L327.839 139.913L327.838 139.914L328.645 140.505ZM325.129 154.286L324.129 154.282V154.286H325.129ZM329.066 172.181L328.275 172.792L328.277 172.795L329.066 172.181ZM351.074 173.552L351.807 174.233L352.074 173.945V173.552H351.074ZM351.074 162.056H352.074V161.056H351.074V162.056ZM339.227 162.056H338.227V163.056H339.227V162.056ZM339.227 156.572V155.572H338.227V156.572H339.227ZM357.789 156.572H358.789V155.572H357.789V156.572ZM356.969 174.773C355.358 177.08 353.097 178.828 350.142 180.006L350.882 181.864C354.16 180.557 356.751 178.579 358.609 175.917L356.969 174.773ZM350.145 180.004C347.193 181.168 343.712 181.763 339.684 181.763V183.763C343.905 183.763 347.643 183.14 350.878 181.865L350.145 180.004ZM339.684 181.763C335.674 181.763 332.152 180.83 329.09 178.988L328.059 180.702C331.465 182.75 335.35 183.763 339.684 183.763V181.763ZM329.094 178.991C326.032 177.127 323.65 174.486 321.948 171.035L320.154 171.92C322.014 175.689 324.647 178.625 328.054 180.699L329.094 178.991ZM321.95 171.04C320.268 167.586 319.389 163.554 319.344 158.917L317.344 158.937C317.392 163.816 318.318 168.15 320.152 171.916L321.95 171.04ZM319.344 158.927V154.462H317.344V158.927H319.344ZM319.344 154.462C319.344 146.896 321.103 141.181 324.486 137.178L322.959 135.887C319.17 140.369 317.344 146.606 317.344 154.462H319.344ZM324.484 137.18C327.871 133.2 332.633 131.169 338.91 131.169V129.169C332.156 129.169 326.793 131.38 322.961 135.884L324.484 137.18ZM338.91 131.169C344.08 131.169 348.133 132.493 351.169 135.048L352.456 133.517C348.976 130.588 344.428 129.169 338.91 129.169V131.169ZM351.172 135.05C354.205 137.581 356.101 141.206 356.799 146.027L358.779 145.741C358.024 140.531 355.936 136.421 352.453 133.515L351.172 135.05ZM357.789 144.884H351.039V146.884H357.789V144.884ZM352.022 145.7C351.36 142.157 349.951 139.381 347.71 137.498C345.467 135.614 342.509 134.724 338.945 134.724V136.724C342.178 136.724 344.635 137.527 346.423 139.03C348.213 140.533 349.452 142.837 350.056 146.068L352.022 145.7ZM338.945 134.724C334.156 134.724 330.4 136.43 327.839 139.913L329.45 141.098C331.577 138.206 334.688 136.724 338.945 136.724V134.724ZM327.838 139.914C325.342 143.318 324.153 148.154 324.129 154.282L326.129 154.29C326.152 148.372 327.306 144.021 329.451 141.096L327.838 139.914ZM324.129 154.286V158.47H326.129V154.286H324.129ZM324.129 158.47C324.129 164.359 325.475 169.168 328.275 172.792L329.858 171.57C327.407 168.397 326.129 164.065 326.129 158.47H324.129ZM328.277 172.795C331.102 176.426 334.95 178.243 339.719 178.243V176.243C335.534 176.243 332.281 174.685 329.856 171.567L328.277 172.795ZM339.719 178.243C342.321 178.243 344.635 177.955 346.647 177.358L346.079 175.441C344.294 175.97 342.179 176.243 339.719 176.243V178.243ZM346.647 177.358C348.702 176.75 350.432 175.711 351.807 174.233L350.342 172.871C349.232 174.065 347.821 174.925 346.079 175.441L346.647 177.358ZM352.074 173.552V162.056H350.074V173.552H352.074ZM351.074 161.056H339.227V163.056H351.074V161.056ZM340.227 162.056V156.572H338.227V162.056H340.227ZM339.227 157.572H357.789V155.572H339.227V157.572ZM356.789 156.572V175.345H358.789V156.572H356.789ZM408.414 182.06V183.06H409.414V182.06H408.414ZM401.629 182.06L400.792 182.607L401.088 183.06H401.629V182.06ZM375.859 142.614L376.697 142.068L374.859 139.255V142.614H375.859ZM375.859 182.06V183.06H376.859V182.06H375.859ZM369.074 182.06H368.074V183.06H369.074V182.06ZM369.074 130.872V129.872H368.074V130.872H369.074ZM375.859 130.872L376.697 130.326L376.401 129.872H375.859V130.872ZM401.699 170.493L400.862 171.04L402.699 173.857V170.493H401.699ZM401.699 130.872V129.872H400.699V130.872H401.699ZM408.414 130.872H409.414V129.872H408.414V130.872ZM408.414 181.06H401.629V183.06H408.414V181.06ZM402.466 181.513L376.697 142.068L375.022 143.161L400.792 182.607L402.466 181.513ZM374.859 142.614V182.06H376.859V142.614H374.859ZM375.859 181.06H369.074V183.06H375.859V181.06ZM370.074 182.06V130.872H368.074V182.06H370.074ZM369.074 131.872H375.859V129.872H369.074V131.872ZM375.022 131.419L400.862 171.04L402.537 169.947L376.697 130.326L375.022 131.419ZM402.699 170.493V130.872H400.699V170.493H402.699ZM401.699 131.872H408.414V129.872H401.699V131.872ZM407.414 130.872V182.06H409.414V130.872H407.414ZM449.301 168.7L450.24 168.357L450 167.7H449.301V168.7ZM427.855 168.7V167.7H427.153L426.915 168.361L427.855 168.7ZM423.039 182.06V183.06H423.742L423.98 182.399L423.039 182.06ZM416.078 182.06L415.144 181.703L414.626 183.06H416.078V182.06ZM435.625 130.872V129.872H434.936L434.691 130.516L435.625 130.872ZM441.531 130.872L442.465 130.515L442.219 129.872H441.531V130.872ZM461.113 182.06V183.06H462.567L462.047 181.702L461.113 182.06ZM454.188 182.06L453.248 182.403L453.488 183.06H454.188V182.06ZM429.895 163.146L428.954 162.805L428.468 164.146H429.895V163.146ZM447.297 163.146V164.146H448.725L448.237 162.804L447.297 163.146ZM438.578 139.204L439.518 138.862L438.576 136.277L437.638 138.863L438.578 139.204ZM449.301 167.7H427.855V169.7H449.301V167.7ZM426.915 168.361L422.098 181.721L423.98 182.399L428.796 169.04L426.915 168.361ZM423.039 181.06H416.078V183.06H423.039V181.06ZM417.012 182.417L436.559 131.229L434.691 130.516L415.144 181.703L417.012 182.417ZM435.625 131.872H441.531V129.872H435.625V131.872ZM440.597 131.23L460.179 182.417L462.047 181.702L442.465 130.515L440.597 131.23ZM461.113 181.06H454.188V183.06H461.113V181.06ZM455.127 181.716L450.24 168.357L448.362 169.044L453.248 182.403L455.127 181.716ZM429.895 164.146H447.297V162.146H429.895V164.146ZM448.237 162.804L439.518 138.862L437.638 139.547L446.357 163.488L448.237 162.804ZM437.638 138.863L428.954 162.805L430.835 163.487L439.518 139.545L437.638 138.863ZM474.789 176.54H473.789V177.54H474.789V176.54ZM499.047 176.54H500.047V175.54H499.047V176.54ZM499.047 182.06V183.06H500.047V182.06H499.047ZM468.004 182.06H467.004V183.06H468.004V182.06ZM468.004 130.872V129.872H467.004V130.872H468.004ZM474.789 130.872H475.789V129.872H474.789V130.872ZM474.789 177.54H499.047V175.54H474.789V177.54ZM498.047 176.54V182.06H500.047V176.54H498.047ZM499.047 181.06H468.004V183.06H499.047V181.06ZM469.004 182.06V130.872H467.004V182.06H469.004ZM468.004 131.872H474.789V129.872H468.004V131.872ZM473.789 130.872V176.54H475.789V130.872H473.789Z" fill="#725E5E"/>
</svg>
